<?xml version="1.0" standalone="no"?>
<!DOCTYPE svg PUBLIC "-//W3C//DTD SVG 20010904//EN"
 "http://www.w3.org/TR/2001/REC-SVG-20010904/DTD/svg10.dtd">
<svg version="1.0" xmlns="http://www.w3.org/2000/svg"
 width="172.000000pt" height="172.000000pt" viewBox="0 0 172.000000 172.000000"
 preserveAspectRatio="xMidYMid meet">
<metadata>
Created by potrace 1.14, written by Peter Selinger 2001-2017
</metadata>
<g transform="translate(0.000000,172.000000) scale(0.100000,-0.100000)"
fill="#000000" stroke="none">
<path d="M612 1574 c-98 -28 -196 -65 -242 -91 -39 -22 -54 -63 -23 -63 17 -1
17 -1 1 -11 -27 -15 -23 -40 5 -35 20 3 41 12 127 49 14 5 27 11 30 12 3 1 43
14 90 29 66 22 105 29 175 30 72 1 90 4 90 16 0 8 -6 21 -15 28 -8 8 -10 11
-4 8 7 -3 14 3 17 14 12 45 -118 52 -251 14z"/>
<path d="M899 1584 c-18 -5 -15 -44 3 -44 6 0 5 -7 -2 -15 -20 -25 -2 -32 92
-39 48 -3 108 -13 135 -21 26 -8 64 -20 83 -26 74 -23 241 -113 290 -157 71
-62 103 -129 104 -212 1 -124 -13 -178 -59 -224 -16 -16 -16 -18 0 -36 10 -11
14 -20 9 -20 -18 0 -33 16 -39 42 -4 15 -13 29 -21 32 -11 4 -14 -7 -14 -52 0
-73 -27 -160 -68 -217 -33 -47 -63 -64 -41 -24 21 40 16 196 -12 336 -9 48
-35 88 -70 109 -19 11 -121 148 -141 189 -9 17 -18 44 -22 60 -4 17 -12 48
-18 70 l-10 39 -13 -24 c-22 -40 -2 -160 36 -225 16 -26 18 -35 7 -36 -26 -1
-94 -9 -122 -13 -15 -3 -38 -14 -50 -25 -13 -12 -26 -18 -29 -14 -4 3 -7 1 -7
-5 0 -7 -3 -12 -8 -12 -10 0 -85 95 -89 112 -7 31 -23 117 -30 163 -6 34 -13
50 -23 50 -12 0 -15 -13 -15 -55 1 -135 24 -224 76 -291 l28 -36 -20 -54 c-16
-40 -20 -67 -15 -104 5 -48 4 -51 -17 -52 -12 0 -34 -3 -49 -6 -23 -5 -30 1
-55 42 -31 49 -48 95 -44 122 1 8 -21 40 -49 70 -75 81 -93 119 -85 186 3 30
10 66 16 80 12 32 11 36 -3 27 -7 -4 -10 -4 -6 1 4 4 2 15 -5 24 -11 14 -10
14 6 2 9 -8 20 -11 24 -7 3 3 1 6 -6 6 -9 0 -11 8 -7 25 9 34 -13 24 -43 -20
-17 -25 -25 -54 -29 -103 -2 -37 -8 -74 -12 -82 -4 -8 -8 -46 -8 -83 0 -37 -1
-69 -3 -71 -2 -2 -21 -6 -41 -9 -37 -6 -38 -5 -48 35 -13 45 -5 108 17 151 8
15 11 37 7 49 -4 15 -3 19 7 14 8 -4 7 -1 -3 6 -11 10 -13 19 -7 30 7 12 5 16
-8 14 -10 -1 -30 -26 -46 -57 -27 -50 -28 -60 -24 -139 3 -47 10 -97 15 -111
9 -24 6 -31 -24 -65 -20 -22 -51 -61 -69 -87 l-33 -49 -24 24 c-12 12 -27 22
-33 20 -5 -2 -4 3 3 10 11 11 15 10 25 -2 13 -17 31 -20 43 -8 4 5 -6 13 -22
18 -19 7 -35 24 -46 48 -20 43 -38 118 -30 127 3 3 0 5 -6 5 -7 0 -13 -7 -13
-15 -1 -8 -3 -19 -4 -25 -1 -5 -3 -31 -4 -57 l-2 -48 -15 40 c-21 57 -8 158
29 225 45 82 105 148 180 198 23 15 36 31 34 41 -2 9 -9 15 -15 13 -9 -1 -8 6
3 22 14 21 14 24 0 30 -56 21 -207 -126 -267 -261 -40 -90 -33 -262 16 -368
25 -54 79 -115 103 -115 17 0 26 19 15 33 -5 7 -7 19 -3 28 5 12 10 13 26 5
17 -10 20 -23 22 -101 3 -91 27 -195 46 -195 6 0 7 -3 4 -7 -6 -5 35 -41 72
-62 18 -11 -2 -73 -31 -101 -22 -20 -18 -57 4 -44 10 6 11 4 0 -7 -6 -7 -12
-21 -12 -30 0 -22 34 -18 61 7 11 10 19 14 19 10 0 -4 8 -2 18 3 16 8 17 4 17
-36 0 -77 31 -79 94 -7 20 22 31 44 28 55 -3 10 0 16 7 13 27 -11 283 -10 368
1 175 23 363 99 458 184 25 23 48 41 52 41 3 0 9 8 11 17 3 11 5 6 6 -11 3
-90 67 -236 102 -236 17 0 18 5 13 42 -4 24 -10 50 -14 58 -7 14 -14 56 -11
72 1 4 26 -8 57 -28 57 -36 93 -39 79 -6 -4 9 -8 29 -8 45 0 15 -3 27 -7 27
-7 0 -49 84 -78 154 -12 29 -18 61 -14 75 3 14 5 41 4 59 0 18 3 30 8 27 17
-11 62 42 80 95 21 61 24 183 8 290 -13 83 -60 172 -116 219 -24 20 -56 46
-70 58 -15 13 -33 23 -39 23 -7 0 -13 4 -13 8 0 9 -150 82 -167 82 -5 0 -37
11 -71 25 -46 19 -85 26 -159 29 -54 3 -105 2 -114 0z m-384 -594 c3 -5 1 -10
-4 -10 -6 0 -11 5 -11 10 0 6 2 10 4 10 3 0 8 -4 11 -10z m698 -57 c68 -43 72
-49 71 -126 -1 -182 -145 -239 -312 -124 -85 58 -90 137 -12 214 74 74 171 88
253 36z m-658 -127 c47 -28 101 -92 111 -133 4 -13 3 -34 0 -48 -8 -30 -60
-85 -81 -85 -10 0 -13 -5 -9 -12 4 -6 3 -8 -3 -5 -5 3 -20 -1 -33 -10 -26 -18
-37 -21 -115 -26 -95 -7 -129 15 -141 91 -12 80 41 205 106 246 36 23 109 15
165 -18z m291 -105 c-11 -17 59 -105 108 -135 27 -17 52 -31 55 -31 3 -1 17
-7 30 -14 12 -7 32 -11 42 -8 10 3 19 1 19 -5 0 -12 104 -5 140 10 19 7 31 6
45 -4 10 -8 13 -14 7 -14 -7 0 -12 -8 -12 -18 0 -18 -71 -59 -175 -100 -44
-18 -63 -24 -125 -39 -127 -30 -530 -25 -530 8 0 9 2 10 35 14 38 4 114 34
162 64 61 39 95 88 101 150 4 48 5 49 39 49 41 0 56 16 49 55 -3 15 -1 27 5
27 6 0 8 -4 5 -9z m399 -311 c-3 -5 -12 -10 -18 -10 -7 0 -6 4 3 10 19 12 23
12 15 0z m-35 -15 c0 -2 -10 -9 -22 -15 -22 -11 -22 -10 -4 4 21 17 26 19 26
11z m-50 -29 c0 -2 -7 -7 -16 -10 -8 -3 -12 -2 -9 4 6 10 25 14 25 6z m-62
-21 c-10 -10 -98 -33 -98 -25 0 4 19 12 43 17 52 13 62 14 55 8z m-108 -29 c0
-2 -9 -6 -20 -9 -11 -3 -18 -1 -14 4 5 9 34 13 34 5z m-361 -22 c3 -3 -12 -4
-33 -2 -20 1 -39 5 -42 9 -5 8 67 1 75 -7z m226 6 c-3 -5 -25 -9 -48 -8 l-42
1 45 7 c25 4 46 8 48 8 2 1 0 -2 -3 -8z m85 6 c0 -2 -16 -6 -35 -8 -19 -2 -35
0 -35 4 0 4 16 8 35 8 19 0 35 -2 35 -4z m-267 -13 c-7 -2 -19 -2 -25 0 -7 3
-2 5 12 5 14 0 19 -2 13 -5z m67 -2 c0 -4 -11 -6 -25 -3 -14 2 -25 6 -25 8 0
2 11 4 25 4 14 0 25 -4 25 -9z"/>
</g>
</svg>
